<?xml version="1.0" encoding="UTF-8"?>
<!DOCTYPE svg PUBLIC "-//W3C//DTD SVG 1.1//EN" "http://www.w3.org/Graphics/SVG/1.1/DTD/svg11.dtd">
<svg xmlns="http://www.w3.org/2000/svg" version="1.1" width="623px" height="463px" style="shape-rendering:geometricPrecision; text-rendering:geometricPrecision; image-rendering:optimizeQuality; fill-rule:evenodd; clip-rule:evenodd" xmlns:xlink="http://www.w3.org/1999/xlink">
<g><path style="opacity:0.996" fill="#b10dc8" d="M 566.5,462.5 C 395.5,462.5 224.5,462.5 53.5,462.5C 25.2274,459.733 8.06076,444.4 2,416.5C 1.33333,293.167 1.33333,169.833 2,46.5C 7.89192,18.6098 25.0586,3.44313 53.5,1C 224.5,0.333333 395.5,0.333333 566.5,1C 589.167,2.24284 605.334,13.0762 615,33.5C 616.313,37.4204 617.313,41.4204 618,45.5C 618.667,169.5 618.667,293.5 618,417.5C 614.62,436.545 604.12,450.045 586.5,458C 579.905,460.476 573.238,461.976 566.5,462.5 Z M 58.5,46.5 C 74.1667,46.5 89.8333,46.5 105.5,46.5C 105.5,65.8333 105.5,85.1667 105.5,104.5C 86.1667,104.5 66.8333,104.5 47.5,104.5C 47.3334,88.4965 47.5001,72.4965 48,56.5C 50.1059,51.5573 53.6059,48.224 58.5,46.5 Z M 151.5,46.5 C 257.833,46.5 364.167,46.5 470.5,46.5C 470.5,169.833 470.5,293.167 470.5,416.5C 364.167,416.5 257.833,416.5 151.5,416.5C 151.5,293.167 151.5,169.833 151.5,46.5 Z M 514.5,46.5 C 530.503,46.3334 546.503,46.5001 562.5,47C 568.66,49.4867 572.16,53.9867 573,60.5C 573.5,75.1629 573.667,89.8295 573.5,104.5C 553.833,104.5 534.167,104.5 514.5,104.5C 514.5,85.1667 514.5,65.8333 514.5,46.5 Z M 47.5,150.5 C 66.8333,150.5 86.1667,150.5 105.5,150.5C 105.5,169.833 105.5,189.167 105.5,208.5C 86.1667,208.5 66.8333,208.5 47.5,208.5C 47.5,189.167 47.5,169.833 47.5,150.5 Z M 514.5,150.5 C 534.167,150.5 553.833,150.5 573.5,150.5C 573.5,169.833 573.5,189.167 573.5,208.5C 553.833,208.5 534.167,208.5 514.5,208.5C 514.5,189.167 514.5,169.833 514.5,150.5 Z M 47.5,254.5 C 66.8333,254.5 86.1667,254.5 105.5,254.5C 105.5,273.833 105.5,293.167 105.5,312.5C 86.1667,312.5 66.8333,312.5 47.5,312.5C 47.5,293.167 47.5,273.833 47.5,254.5 Z M 514.5,254.5 C 534.167,254.5 553.833,254.5 573.5,254.5C 573.5,273.833 573.5,293.167 573.5,312.5C 553.833,312.5 534.167,312.5 514.5,312.5C 514.5,293.167 514.5,273.833 514.5,254.5 Z M 47.5,358.5 C 66.8333,358.5 86.1667,358.5 105.5,358.5C 105.5,377.833 105.5,397.167 105.5,416.5C 89.8298,416.667 74.1631,416.5 58.5,416C 53.4268,414.594 49.9268,411.428 48,406.5C 47.5001,390.503 47.3334,374.503 47.5,358.5 Z M 514.5,358.5 C 534.167,358.5 553.833,358.5 573.5,358.5C 573.667,373.504 573.5,388.504 573,403.5C 571.702,409.469 568.202,413.635 562.5,416C 546.503,416.5 530.503,416.667 514.5,416.5C 514.5,397.167 514.5,377.833 514.5,358.5 Z"/></g>
<g><path style="opacity:0.997" fill="#b10dc9" d="M 262.5,158.5 C 268.28,158.26 273.28,160.093 277.5,164C 308.167,186 338.833,208 369.5,230C 374.833,236.333 374.833,242.667 369.5,249C 337.657,271.421 305.99,294.088 274.5,317C 264.481,323.07 257.647,320.57 254,309.5C 253.333,262.833 253.333,216.167 254,169.5C 254.843,164.172 257.677,160.505 262.5,158.5 Z"/></g>
</svg>
